<svg width="283" height="107" viewBox="0 0 283 107" fill="none" xmlns="http://www.w3.org/2000/svg">
<g clip-path="url(#clip0_1_2)">
<path d="M0.84804 102.748H1.64004L10.946 58.924H16.49L6.65604 105.124H-4.23396L-6.87396 61.3H-7.66596L-16.972 105.124H-22.516L-12.682 58.924H-1.79196L0.84804 102.748Z" fill="black"/>
<path d="M24.0341 58.924H57.2321V64.072H43.8342L35.1221 105.124H29.5781L38.2901 64.072H24.0341V58.924Z" fill="black"/>
<path d="M85.3023 93.64H66.7563L61.1463 105.124H54.8763L77.7783 58.924H88.3383L91.6383 105.124H86.0283L85.3023 93.64ZM69.2643 88.492H84.9723L83.2563 61.366H82.4642L69.2643 88.492Z" fill="black"/>
<path d="M114.428 100.9C116.32 100.9 117.97 100.614 119.378 100.042C120.83 99.47 122.062 98.678 123.074 97.666C124.086 96.654 124.922 95.444 125.582 94.036C126.286 92.584 126.858 91 127.298 89.284L127.496 88.492H133.04L132.842 89.284C132.182 91.924 131.346 94.3 130.334 96.412C129.366 98.48 128.134 100.24 126.638 101.692C125.186 103.1 123.404 104.178 121.292 104.926C119.18 105.674 116.672 106.048 113.768 106.048C111.612 106.048 109.72 105.74 108.092 105.124C106.464 104.508 105.078 103.65 103.934 102.55C102.834 101.406 101.998 100.064 101.426 98.524C100.854 96.984 100.568 95.268 100.568 93.376C100.568 92.452 100.612 91.484 100.7 90.472C100.832 89.416 101.008 88.316 101.228 87.172L103.406 76.876C104.726 70.628 107.014 65.92 110.27 62.752C113.57 59.584 117.904 58 123.272 58C125.384 58 127.254 58.308 128.882 58.924C130.554 59.54 131.94 60.398 133.04 61.498C134.184 62.554 135.042 63.852 135.614 65.392C136.23 66.888 136.538 68.516 136.538 70.276C136.538 71.684 136.34 73.18 135.944 74.764L135.746 75.556H130.202L130.4 74.764C130.62 73.928 130.752 73.202 130.796 72.586C130.884 71.926 130.928 71.288 130.928 70.672C130.928 68.34 130.246 66.492 128.882 65.128C127.562 63.72 125.406 63.016 122.414 63.016C120.654 63.016 119.048 63.368 117.596 64.072C116.144 64.776 114.846 65.766 113.702 67.042C112.558 68.274 111.568 69.77 110.732 71.53C109.94 73.246 109.324 75.16 108.884 77.272L106.838 86.776C106.618 87.788 106.442 88.734 106.31 89.614C106.222 90.494 106.178 91.33 106.178 92.122C106.178 95.07 106.838 97.27 108.158 98.722C109.478 100.174 111.568 100.9 114.428 100.9Z" fill="black"/>
<path d="M145.27 58.924H178.468V64.072H165.07L156.358 105.124H150.814L159.526 64.072H145.27V58.924Z" fill="black"/>
<path d="M-15.9659 0.924H17.2321V6.072H3.83414L-4.87786 47.124H-10.4219L-1.70986 6.072H-15.9659V0.924Z" fill="black"/>
<path d="M45.3023 35.64H26.7563L21.1463 47.124H14.8763L37.7783 0.924H48.3383L51.6383 47.124H46.0283L45.3023 35.64ZM29.2643 30.492H44.9723L43.2563 3.366H42.4642L29.2643 30.492Z" fill="black"/>
<path d="M74.4284 42.9C76.3204 42.9 77.9704 42.614 79.3784 42.042C80.8304 41.47 82.0624 40.678 83.0744 39.666C84.0864 38.654 84.9224 37.444 85.5824 36.036C86.2864 34.584 86.8584 33 87.2984 31.284L87.4964 30.492H93.0404L92.8424 31.284C92.1824 33.924 91.3464 36.3 90.3344 38.412C89.3664 40.48 88.1344 42.24 86.6384 43.692C85.1864 45.1 83.4044 46.178 81.2924 46.926C79.1804 47.674 76.6724 48.048 73.7684 48.048C71.6124 48.048 69.7204 47.74 68.0924 47.124C66.4644 46.508 65.0784 45.65 63.9344 44.55C62.8344 43.406 61.9984 42.064 61.4264 40.524C60.8544 38.984 60.5684 37.268 60.5684 35.376C60.5684 34.452 60.6124 33.484 60.7004 32.472C60.8324 31.416 61.0084 30.316 61.2284 29.172L63.4064 18.876C64.7264 12.628 67.0144 7.92 70.2704 4.752C73.5704 1.584 77.9044 0 83.2724 0C85.3844 0 87.2544 0.308 88.8824 0.924C90.5544 1.54 91.9404 2.398 93.0404 3.498C94.1844 4.554 95.0424 5.852 95.6144 7.392C96.2304 8.888 96.5384 10.516 96.5384 12.276C96.5384 13.684 96.3404 15.18 95.9444 16.764L95.7464 17.556H90.2024L90.4004 16.764C90.6204 15.928 90.7524 15.202 90.7964 14.586C90.8844 13.926 90.9284 13.288 90.9284 12.672C90.9284 10.34 90.2464 8.492 88.8824 7.128C87.5624 5.72 85.4064 5.016 82.4144 5.016C80.6544 5.016 79.0484 5.368 77.5964 6.072C76.1444 6.776 74.8464 7.766 73.7024 9.042C72.5584 10.274 71.5684 11.77 70.7324 13.53C69.9404 15.246 69.3244 17.16 68.8844 19.272L66.8384 28.776C66.6184 29.788 66.4424 30.734 66.3104 31.614C66.2224 32.494 66.1784 33.33 66.1784 34.122C66.1784 37.07 66.8384 39.27 68.1584 40.722C69.4784 42.174 71.5684 42.9 74.4284 42.9Z" fill="black"/>
<path d="M105.27 0.924H138.468V6.072H125.07L116.358 47.124H110.814L119.526 6.072H105.27V0.924Z" fill="black"/>
<path d="M195.368 100.9C197.26 100.9 198.91 100.614 200.318 100.042C201.77 99.47 203.002 98.678 204.014 97.666C205.026 96.654 205.862 95.444 206.522 94.036C207.226 92.584 207.798 91 208.238 89.284L208.436 88.492H213.98L213.782 89.284C213.122 91.924 212.286 94.3 211.274 96.412C210.306 98.48 209.074 100.24 207.578 101.692C206.126 103.1 204.344 104.178 202.232 104.926C200.12 105.674 197.612 106.048 194.708 106.048C192.552 106.048 190.66 105.74 189.032 105.124C187.404 104.508 186.018 103.65 184.874 102.55C183.774 101.406 182.938 100.064 182.366 98.524C181.794 96.984 181.508 95.268 181.508 93.376C181.508 92.452 181.552 91.484 181.64 90.472C181.772 89.416 181.948 88.316 182.168 87.172L184.346 76.876C185.666 70.628 187.954 65.92 191.21 62.752C194.51 59.584 198.844 58 204.212 58C206.324 58 208.194 58.308 209.822 58.924C211.494 59.54 212.88 60.398 213.98 61.498C215.124 62.554 215.982 63.852 216.554 65.392C217.17 66.888 217.478 68.516 217.478 70.276C217.478 71.684 217.28 73.18 216.884 74.764L216.686 75.556H211.142L211.34 74.764C211.56 73.928 211.692 73.202 211.736 72.586C211.824 71.926 211.868 71.288 211.868 70.672C211.868 68.34 211.186 66.492 209.822 65.128C208.502 63.72 206.346 63.016 203.354 63.016C201.594 63.016 199.988 63.368 198.536 64.072C197.084 64.776 195.786 65.766 194.642 67.042C193.498 68.274 192.508 69.77 191.672 71.53C190.88 73.246 190.264 75.16 189.824 77.272L187.778 86.776C187.558 87.788 187.382 88.734 187.25 89.614C187.162 90.494 187.118 91.33 187.118 92.122C187.118 95.07 187.778 97.27 189.098 98.722C190.418 100.174 192.508 100.9 195.368 100.9Z" fill="black"/>
<path d="M224.494 76.876C225.77 70.716 228.014 66.03 231.226 62.818C234.482 59.606 238.838 58 244.294 58C248.562 58 251.818 59.232 254.062 61.696C256.35 64.116 257.494 67.482 257.494 71.794C257.494 72.674 257.428 73.62 257.296 74.632C257.208 75.6 257.054 76.59 256.834 77.602L254.788 87.172C253.512 93.332 251.246 98.018 247.99 101.23C244.778 104.442 240.444 106.048 234.988 106.048C230.72 106.048 227.442 104.838 225.154 102.418C222.91 99.954 221.788 96.566 221.788 92.254C221.788 91.374 221.832 90.45 221.92 89.482C222.052 88.47 222.228 87.458 222.448 86.446L224.494 76.876ZM235.78 101.032C237.584 101.032 239.212 100.702 240.664 100.042C242.16 99.338 243.458 98.37 244.558 97.138C245.702 95.862 246.648 94.366 247.396 92.65C248.188 90.89 248.826 88.932 249.31 86.776L251.422 76.876C251.774 75.116 251.95 73.576 251.95 72.256C251.95 69.396 251.246 67.152 249.838 65.524C248.43 63.852 246.318 63.016 243.502 63.016C239.85 63.016 236.902 64.314 234.658 66.91C232.458 69.506 230.896 72.96 229.972 77.272L227.86 87.172C227.508 88.932 227.332 90.472 227.332 91.792C227.332 94.652 228.036 96.918 229.444 98.59C230.852 100.218 232.964 101.032 235.78 101.032Z" fill="black"/>
<path d="M283.848 102.748H284.64L293.946 58.924H299.49L289.656 105.124H278.766L276.126 61.3H275.334L266.028 105.124H260.484L270.318 58.924H281.208L283.848 102.748Z" fill="black"/>
<path d="M155.368 42.9C157.26 42.9 158.91 42.614 160.318 42.042C161.77 41.47 163.002 40.678 164.014 39.666C165.026 38.654 165.862 37.444 166.522 36.036C167.226 34.584 167.798 33 168.238 31.284L168.436 30.492H173.98L173.782 31.284C173.122 33.924 172.286 36.3 171.274 38.412C170.306 40.48 169.074 42.24 167.578 43.692C166.126 45.1 164.344 46.178 162.232 46.926C160.12 47.674 157.612 48.048 154.708 48.048C152.552 48.048 150.66 47.74 149.032 47.124C147.404 46.508 146.018 45.65 144.874 44.55C143.774 43.406 142.938 42.064 142.366 40.524C141.794 38.984 141.508 37.268 141.508 35.376C141.508 34.452 141.552 33.484 141.64 32.472C141.772 31.416 141.948 30.316 142.168 29.172L144.346 18.876C145.666 12.628 147.954 7.92 151.21 4.752C154.51 1.584 158.844 0 164.212 0C166.324 0 168.194 0.308 169.822 0.924C171.494 1.54 172.88 2.398 173.98 3.498C175.124 4.554 175.982 5.852 176.554 7.392C177.17 8.888 177.478 10.516 177.478 12.276C177.478 13.684 177.28 15.18 176.884 16.764L176.686 17.556H171.142L171.34 16.764C171.56 15.928 171.692 15.202 171.736 14.586C171.824 13.926 171.868 13.288 171.868 12.672C171.868 10.34 171.186 8.492 169.822 7.128C168.502 5.72 166.346 5.016 163.354 5.016C161.594 5.016 159.988 5.368 158.536 6.072C157.084 6.776 155.786 7.766 154.642 9.042C153.498 10.274 152.508 11.77 151.672 13.53C150.88 15.246 150.264 17.16 149.824 19.272L147.778 28.776C147.558 29.788 147.382 30.734 147.25 31.614C147.162 32.494 147.118 33.33 147.118 34.122C147.118 37.07 147.778 39.27 149.098 40.722C150.418 42.174 152.508 42.9 155.368 42.9Z" fill="black"/>
<path d="M184.494 18.876C185.77 12.716 188.014 8.03 191.226 4.818C194.482 1.606 198.838 0 204.294 0C208.562 0 211.818 1.232 214.062 3.696C216.35 6.116 217.494 9.482 217.494 13.794C217.494 14.674 217.428 15.62 217.296 16.632C217.208 17.6 217.054 18.59 216.834 19.602L214.788 29.172C213.512 35.332 211.246 40.018 207.99 43.23C204.778 46.442 200.444 48.048 194.988 48.048C190.72 48.048 187.442 46.838 185.154 44.418C182.91 41.954 181.788 38.566 181.788 34.254C181.788 33.374 181.832 32.45 181.92 31.482C182.052 30.47 182.228 29.458 182.448 28.446L184.494 18.876ZM195.78 43.032C197.584 43.032 199.212 42.702 200.664 42.042C202.16 41.338 203.458 40.37 204.558 39.138C205.702 37.862 206.648 36.366 207.396 34.65C208.188 32.89 208.826 30.932 209.31 28.776L211.422 18.876C211.774 17.116 211.95 15.576 211.95 14.256C211.95 11.396 211.246 9.152 209.838 7.524C208.43 5.852 206.318 5.016 203.502 5.016C199.85 5.016 196.902 6.314 194.658 8.91C192.458 11.506 190.896 14.96 189.972 19.272L187.86 29.172C187.508 30.932 187.332 32.472 187.332 33.792C187.332 36.652 188.036 38.918 189.444 40.59C190.852 42.218 192.964 43.032 195.78 43.032Z" fill="black"/>
<path d="M243.848 44.748H244.64L253.946 0.924H259.49L249.656 47.124H238.766L236.126 3.3H235.334L226.028 47.124H220.484L230.318 0.924H241.208L243.848 44.748Z" fill="black"/>
<path d="M267.034 0.924H300.232V6.072H286.834L278.122 47.124H272.578L281.29 6.072H267.034V0.924Z" fill="black"/>
</g>
<defs>
<clipPath id="clip0_1_2">
<rect width="283" height="107" fill="white"/>
</clipPath>
</defs>
</svg>
